<svg width="40" height="40" viewBox="0 0 40 40" fill="none" xmlns="http://www.w3.org/2000/svg">
<path d="M20 40C31.0457 40 40 31.0457 40 20C40 8.95431 31.0457 0 20 0C8.95431 0 0 8.95431 0 20C0 31.0457 8.95431 40 20 40Z" fill="#231F20"/>
<path fill-rule="evenodd" clip-rule="evenodd" d="M14.119 7.26172H25.8868C29.6671 7.26172 32.7714 10.3749 32.7714 14.1463V25.8519C32.7714 29.6322 29.6582 32.7365 25.8868 32.7365H14.119C10.3387 32.7365 7.23438 29.6233 7.23438 25.8519V14.1463C7.23438 10.366 10.3476 7.26172 14.119 7.26172ZM26.8563 11.7091C27.648 11.7091 28.3151 12.3762 28.3151 13.1679C28.3151 13.9595 27.648 14.6266 26.8563 14.6266C26.0024 14.6266 25.3976 13.9595 25.3976 13.1679C25.3976 12.3762 26.0113 11.7091 26.8563 11.7091ZM19.9718 13.0522H20.034C23.8143 13.0522 26.9809 16.2188 26.9809 19.9991C26.9809 23.8417 23.8143 26.946 20.034 26.946H19.9718C16.1915 26.946 13.0872 23.8328 13.0872 19.9991C13.0872 16.2188 16.2004 13.0522 19.9718 13.0522ZM19.9718 15.4272H20.034C22.5335 15.4272 24.606 17.4997 24.606 19.9991C24.606 22.5608 22.5335 24.6333 20.034 24.6333H19.9718C17.4723 24.6333 15.3998 22.5608 15.3998 19.9991C15.3998 17.4997 17.4723 15.4272 19.9718 15.4272ZM14.1812 9.45874H25.8245C28.4485 9.45874 30.5833 11.5935 30.5833 14.2175V25.7985C30.5833 28.4225 28.4485 30.5572 25.8245 30.5572H14.1812C11.5573 30.5572 9.4225 28.4225 9.4225 25.7985V14.2175C9.4225 11.5935 11.5573 9.45874 14.1812 9.45874Z" fill="white"/>
</svg>
