<svg width="40" height="40" viewBox="0 0 40 40" fill="none" xmlns="http://www.w3.org/2000/svg">
<path d="M20 40C31.0457 40 40 31.0457 40 20C40 8.95431 31.0457 0 20 0C8.95431 0 0 8.95431 0 20C0 31.0457 8.95431 40 20 40Z" fill="#231F20"/>
<path fill-rule="evenodd" clip-rule="evenodd" d="M12.6554 11.5405C15.0481 11.3448 17.8766 11.2559 20.0292 11.2559C22.1817 11.2559 24.9658 11.3537 27.403 11.5405C30.2315 11.7807 31.6636 12.261 32.0461 15.0806C32.2418 16.3704 32.3307 18.1493 32.3307 19.9639C32.3307 21.7873 32.2329 23.6019 32.0461 24.8471C31.6636 27.7202 30.2226 28.156 27.403 28.3873C24.9569 28.6274 22.1817 28.6719 20.0292 28.6719C17.8766 28.6719 15.0481 28.6274 12.6554 28.3873C9.82682 28.1471 8.34139 27.7202 7.95891 24.8471C7.81659 23.6019 7.71875 21.7784 7.71875 19.9639C7.71875 18.1404 7.81659 16.3704 7.95891 15.0806C8.34139 12.2521 9.82682 11.7718 12.6554 11.5405Z" fill="white"/>
<path fill-rule="evenodd" clip-rule="evenodd" d="M17.5391 16.2812L23.9611 19.9726L17.5391 23.7084V16.2812Z" fill="#231F20"/>
</svg>
